<?xml version="1.0" encoding="utf-8"?>
<!-- Generator: Adobe Illustrator 20.0.0, SVG Export Plug-In . SVG Version: 6.00 Build 0)  -->
<svg version="1.1" id="Layer_1" xmlns="http://www.w3.org/2000/svg" xmlns:xlink="http://www.w3.org/1999/xlink" x="0px" y="0px"
	 viewBox="0 0 80 80" style="enable-background:new 0 0 80 80;" xml:space="preserve">
<style type="text/css">
	.st0{fill:#FFFFFF;stroke:url(#SVGID_1_);stroke-width:3;}
	.st1{fill:none;stroke:url(#SVGID_2_);stroke-width:1.5;}
	.st2{fill:none;stroke:url(#SVGID_3_);stroke-width:1.5;}
	.st3{fill:none;stroke:url(#SVGID_4_);stroke-width:1.5;}
	.st4{fill:none;stroke:url(#SVGID_5_);stroke-width:1.5;}
	.st5{fill:none;stroke:url(#SVGID_6_);stroke-width:1.5;}
	.st6{fill:#FFFFFF;}
	.st7{fill:url(#SVGID_7_);}
	.st8{fill:#FFFFFF;stroke:url(#SVGID_8_);stroke-width:1.5;stroke-miterlimit:10;}
	.st9{fill:url(#SVGID_9_);}
</style>
<g>
	<g>
		<linearGradient id="SVGID_1_" gradientUnits="userSpaceOnUse" x1="13.0625" y1="60.6625" x2="77.7705" y2="6.366">
			<stop  offset="0" style="stop-color:#F26A75"/>
			<stop  offset="1" style="stop-color:#F7935C"/>
		</linearGradient>
		<path class="st0" d="M70.4,65.5H20.4c-1.6,0-3-1.3-3-3v-58c0-1.6,1.3-3,3-3h49.9c1.6,0,3,1.3,3,3v58C73.3,64.2,72,65.5,70.4,65.5z
			"/>
		<g>
			<linearGradient id="SVGID_2_" gradientUnits="userSpaceOnUse" x1="29.9902" y1="53.1642" x2="45.6122" y2="44.1448">
				<stop  offset="0" style="stop-color:#F26A75"/>
				<stop  offset="1" style="stop-color:#F7935C"/>
			</linearGradient>
			<line class="st1" x1="27.8" y1="48.7" x2="47.8" y2="48.7"/>
			<linearGradient id="SVGID_3_" gradientUnits="userSpaceOnUse" x1="31.5735" y1="38.094" x2="56.6953" y2="23.5899">
				<stop  offset="0" style="stop-color:#F26A75"/>
				<stop  offset="1" style="stop-color:#F7935C"/>
			</linearGradient>
			<line class="st2" x1="27.8" y1="30.8" x2="60.4" y2="30.8"/>
			<linearGradient id="SVGID_4_" gradientUnits="userSpaceOnUse" x1="31.5735" y1="47.0003" x2="56.6953" y2="32.4962">
				<stop  offset="0" style="stop-color:#F26A75"/>
				<stop  offset="1" style="stop-color:#F7935C"/>
			</linearGradient>
			<line class="st3" x1="27.8" y1="39.7" x2="60.4" y2="39.7"/>
			<linearGradient id="SVGID_5_" gradientUnits="userSpaceOnUse" x1="30.832" y1="18.9972" x2="51.5047" y2="7.0618">
				<stop  offset="0" style="stop-color:#F26A75"/>
				<stop  offset="1" style="stop-color:#F7935C"/>
			</linearGradient>
			<line class="st4" x1="27.8" y1="13" x2="54.5" y2="13"/>
			<linearGradient id="SVGID_6_" gradientUnits="userSpaceOnUse" x1="31.5735" y1="29.1878" x2="56.6953" y2="14.6837">
				<stop  offset="0" style="stop-color:#F26A75"/>
				<stop  offset="1" style="stop-color:#F7935C"/>
			</linearGradient>
			<line class="st5" x1="27.8" y1="21.9" x2="60.4" y2="21.9"/>
		</g>
	</g>
	<path class="st6" d="M64.8,71.1L64.8,71.1c-8.1,0-14.8-6.6-14.8-14.8v0c0-8.1,6.6-14.8,14.8-14.8h0c8.1,0,14.8,6.6,14.8,14.8v0
		C79.6,64.5,72.9,71.1,64.8,71.1z"/>
	<linearGradient id="SVGID_7_" gradientUnits="userSpaceOnUse" x1="49.4481" y1="81.2585" x2="91.992" y2="45.5599">
		<stop  offset="0" style="stop-color:#F26A75"/>
		<stop  offset="1" style="stop-color:#F7935C"/>
	</linearGradient>
	<polygon class="st7" points="57.2,57 57.2,79.1 64.6,73.1 72.5,79.7 72.5,57.3 	"/>
	<linearGradient id="SVGID_8_" gradientUnits="userSpaceOnUse" x1="56.531" y1="66.2624" x2="73.0923" y2="46.5254">
		<stop  offset="0" style="stop-color:#F26A75"/>
		<stop  offset="1" style="stop-color:#F7935C"/>
	</linearGradient>
	<path class="st8" d="M64.8,68.5L64.8,68.5c-6.7,0-12.1-5.5-12.1-12.1v0c0-6.7,5.5-12.1,12.1-12.1h0c6.7,0,12.1,5.5,12.1,12.1v0
		C77,63.1,71.5,68.5,64.8,68.5z"/>
	<linearGradient id="SVGID_9_" gradientUnits="userSpaceOnUse" x1="41.9068" y1="75.6134" x2="85.7941" y2="38.7875">
		<stop  offset="0" style="stop-color:#F26A75"/>
		<stop  offset="1" style="stop-color:#F7935C"/>
	</linearGradient>
	<path class="st9" d="M64.8,65.2L64.8,65.2c-4.9,0-8.8-4-8.8-8.8v0c0-4.9,4-8.8,8.8-8.8h0c4.9,0,8.8,4,8.8,8.8v0
		C73.7,61.3,69.7,65.2,64.8,65.2z"/>
</g>
</svg>
