<?xml version="1.0" encoding="utf-8"?>
<!-- Generator: Adobe Illustrator 20.0.0, SVG Export Plug-In . SVG Version: 6.00 Build 0)  -->
<svg version="1.1" id="Layer_1" xmlns="http://www.w3.org/2000/svg" xmlns:xlink="http://www.w3.org/1999/xlink" x="0px" y="0px"
	 viewBox="0 0 80 80" style="enable-background:new 0 0 80 80;" xml:space="preserve">
<style type="text/css">
	.st0{fill:url(#SVGID_1_);}
	.st1{fill:url(#SVGID_2_);}
	.st2{fill:url(#SVGID_3_);}
	.st3{fill:none;stroke:#C8C8C8;stroke-width:2;stroke-linejoin:round;stroke-miterlimit:10;}
</style>
<g>
	<linearGradient id="SVGID_1_" gradientUnits="userSpaceOnUse" x1="-24.3505" y1="71.9551" x2="130.8788" y2="-83.2742">
		<stop  offset="0" style="stop-color:#F16975"/>
		<stop  offset="0.4492" style="stop-color:#F6925B"/>
	</linearGradient>
	<path class="st0" d="M33.4,0.6c-6.5,0-11.7,5.2-11.7,11.7c0,6.5,11.7,20.5,11.7,20.5s11.7-14,11.7-20.5C45.1,5.8,39.8,0.6,33.4,0.6
		z M33.4,16.7c-2.4,0-4.4-2-4.4-4.4s2-4.4,4.4-4.4s4.4,2,4.4,4.4S35.8,16.7,33.4,16.7z"/>
	<linearGradient id="SVGID_2_" gradientUnits="userSpaceOnUse" x1="7.9221" y1="96.5141" x2="163.1523" y2="-58.7161">
		<stop  offset="0" style="stop-color:#F16975"/>
		<stop  offset="0.4492" style="stop-color:#F6925B"/>
	</linearGradient>
	<path class="st1" d="M69,23.1c-5.8,0-10.5,4.7-10.5,10.5c0,5.8,10.5,18.5,10.5,18.5s10.6-12.6,10.6-18.5
		C79.5,27.8,74.8,23.1,69,23.1z M69,37.6c-2.2,0-4-1.8-4-4c0-2.2,1.8-4,4-4c2.2,0,4,1.8,4,4C73,35.9,71.2,37.6,69,37.6z"/>
	<linearGradient id="SVGID_3_" gradientUnits="userSpaceOnUse" x1="-14.2204" y1="83.3151" x2="140.4652" y2="-71.3705">
		<stop  offset="0" style="stop-color:#F16975"/>
		<stop  offset="0.4492" style="stop-color:#F6925B"/>
	</linearGradient>
	<path class="st2" d="M14,37.2c-9.6,0-14.7,7.3-13.2,15.5C2.3,61,14,71.9,14,79.1c0-7.2,12-19.3,13.2-26.4
		C28.6,44.4,23.6,37.2,14,37.2z M14,55.8c-3.3,0-6-2.7-6-6c0-3.3,2.7-6,6-6c3.3,0,6,2.7,6,6C20,53.1,17.3,55.8,14,55.8z"/>
	<line class="st3" x1="38.9" y1="34.4" x2="58.1" y2="47.3"/>
	<line class="st3" x1="21.7" y1="74.9" x2="60.8" y2="56.7"/>
</g>
</svg>
